<svg xmlns="http://www.w3.org/2000/svg" width="820" height="447.161" viewBox="0 0 820 447.161">
  <g id="undraw_next_tasks_iubr" transform="translate(0 0)">
    <ellipse id="Ellipse_3" data-name="Ellipse 3" cx="410" cy="9.523" rx="410" ry="9.523" transform="translate(0 428.115)" fill="#e6e6e6"/>
    <path id="Path_13" data-name="Path 13" d="M950.63,340.493H749.552V339.44a3.091,3.091,0,0,0-3.091-3.092H661.467a3.091,3.091,0,0,0-3.091,3.091v1.053H456.468a13.6,13.6,0,0,0-13.6,13.6V629.433a13.6,13.6,0,0,0,13.6,13.6H950.63a13.6,13.6,0,0,0,13.6-13.6V354.095a13.6,13.6,0,0,0-13.6-13.6Z" transform="translate(-178.4 -218.03)" fill="#3f3d56"/>
    <path id="Path_14" data-name="Path 14" d="M469.107,366a1.57,1.57,0,0,0-1.552,1.584V634.035a1.57,1.57,0,0,0,1.552,1.583H941.635a1.57,1.57,0,0,0,1.552-1.583V367.583A1.57,1.57,0,0,0,941.635,366Z" transform="translate(-180.223 -220.219)" fill="#fff"/>
    <circle id="Ellipse_4" data-name="Ellipse 4" cx="4.973" cy="4.973" r="4.973" transform="translate(519.761 129.095)" fill="#6c63ff"/>
    <path id="Path_15" data-name="Path 15" d="M971.273,647.014H923.95v-4.887c0-.268-.3-.486-.676-.486H907.049c-.373,0-.676.218-.676.486v4.887H896.233v-4.887c0-.268-.3-.486-.676-.486H879.332c-.373,0-.676.218-.676.486v4.887H868.515v-4.887c0-.268-.3-.486-.676-.486H851.614c-.373,0-.676.218-.676.486v4.887H840.8v-4.887c0-.268-.3-.486-.676-.486H823.9c-.373,0-.676.218-.676.486v4.887H813.08v-4.887c0-.268-.3-.486-.676-.486H796.179c-.373,0-.676.218-.676.486v4.887H785.363v-4.887c0-.268-.3-.486-.676-.486H768.462c-.373,0-.676.218-.676.486v4.887H757.645v-4.887c0-.268-.3-.486-.676-.486H629.874c-.373,0-.676.218-.676.486v4.887H619.058v-4.887c0-.268-.3-.486-.676-.486H602.157c-.373,0-.676.218-.676.486v4.887H591.34v-4.887c0-.268-.3-.486-.676-.486H574.439c-.373,0-.676.218-.676.486v4.887H563.623v-4.887c0-.268-.3-.486-.676-.486H546.722c-.373,0-.676.218-.676.486v4.887H535.905v-4.887c0-.268-.3-.486-.676-.486H519c-.373,0-.676.218-.676.486v4.887H508.188v-4.887c0-.268-.3-.486-.676-.486H491.287c-.373,0-.676.218-.676.486v4.887H480.47v-4.887c0-.268-.3-.486-.676-.486H463.569c-.373,0-.676.218-.676.486v4.887H431.8c-8.961,0-16.225,5.222-16.225,11.663v5.274c0,6.442,7.264,11.663,16.225,11.663H971.273c8.961,0,16.225-5.222,16.225-11.663v-5.274C987.5,652.236,980.233,647.014,971.273,647.014Z" transform="translate(-176.385 -240.567)" fill="#3f3d56"/>
    <rect id="Rectangle_42" data-name="Rectangle 42" width="179.26" height="172.661" rx="3.562" transform="translate(531.17 198.051)" fill="#e6e6e6"/>
    <path id="Path_16" data-name="Path 16" d="M328.042,254.187a111.192,111.192,0,0,1-1.287,23.17s-9.011,20.6,1.287,29.607,29.607-27.032,29.607-27.032c-1.336-8-2.106-15.515,0-20.6Z" transform="translate(-169.56 -211.965)" fill="#ffb8b8"/>
    <path id="Path_17" data-name="Path 17" d="M343.587,526.6v28.32s-3.862,52.777,0,65.65L342.3,645.025h14.16l3.862-29.607s11.585-37.33,7.724-60.5l2.574-28.32Z" transform="translate(-170.945 -232.074)" fill="#ffb8b8"/>
    <path id="Path_18" data-name="Path 18" d="M319.332,526.6v28.32s3.862,52.777,0,65.65l1.287,24.458h-14.16L302.6,615.418s-11.585-37.33-7.724-60.5L292.3,526.6Z" transform="translate(-167.285 -232.074)" fill="#ffb8b8"/>
    <path id="Path_19" data-name="Path 19" d="M285.7,411.73s-7.724,48.915-2.574,77.235,5.149,37.33,5.149,37.33l32.181-1.287,9.011-52.777,7.724,54.065,38.618-6.436s0-41.192,1.287-50.2,1.287-60.5,1.287-60.5Z" transform="translate(-166.477 -223.404)" fill="#2f2e41"/>
    <path id="Path_20" data-name="Path 20" d="M358.706,654.145s-14.16-9.011-20.6,0v15.447s-5.149,11.585,12.872,9.011,11.585-11.585,11.585-11.585Z" transform="translate(-170.617 -241.194)" fill="#2f2e41"/>
    <path id="Path_21" data-name="Path 21" d="M304.411,654.145s14.16-9.011,20.6,0v15.447s5.149,11.585-12.872,9.011-11.585-11.585-11.585-11.585Z" transform="translate(-167.812 -241.194)" fill="#2f2e41"/>
    <circle id="Ellipse_5" data-name="Ellipse 5" cx="20.596" cy="20.596" r="20.596" transform="translate(154.621 13.903)" fill="#ffb8b8"/>
    <path id="Path_22" data-name="Path 22" d="M334.415,297l-8.855-20.833-9.167,4.1L304.808,347.2l1.287,64.362s59.214-2.574,66.937,1.287S364.022,286.7,364.022,286.7L356.3,277.07Z" transform="translate(-168.209 -213.587)" fill="#6c63ff"/>
    <path id="Path_23" data-name="Path 23" d="M325.043,268.086s-19.576,5.149-19.576,12.872c0,0-19.309,3.862-19.309,7.724s-1.287,101.693-1.287,101.693-11.585,21.883-2.574,39.9l-1.287,10.3,25.745,2.574L324.776,284.82Z" transform="translate(-166.294 -212.991)" fill="#2f2e41"/>
    <path id="Path_24" data-name="Path 24" d="M358.724,268.086s19.576,5.149,19.576,12.872c0,0,19.309,3.862,19.309,7.724S398.9,390.374,398.9,390.374s11.585,21.883,2.574,39.9l1.287,10.3-25.745,2.574L358.991,284.82Z" transform="translate(-172.189 -212.991)" fill="#2f2e41"/>
    <path id="Path_25" data-name="Path 25" d="M361.641,216.066s1.287-5.149-5.149-2.574c0,0-7.724-9.011-15.447-2.574,0,0-15.447-2.574-15.447,10.3s-.728,17.123-.728,17.123,4.59-11.974,13.6-10.687c5.507.787,8.609.131,10.19-.5a7.726,7.726,0,0,1,5.394-.256,8.391,8.391,0,0,1,5.012,4.615,38.681,38.681,0,0,0,2.79,5.277A32.679,32.679,0,0,1,365.48,244h0l2.6-15.061s1.287-7.723-2.574-10.3C365.5,218.64,366.79,214.779,361.641,216.066Z" transform="translate(-169.69 -208.599)" fill="#2f2e41"/>
    <rect id="Rectangle_43" data-name="Rectangle 43" width="346.659" height="112.934" transform="translate(236.408 226.85)" fill="#6c63ff"/>
    <path id="Path_26" data-name="Path 26" d="M260.827,435.46s-7.724,29.607,3.862,27.032,9.011-28.32,9.011-28.32Z" transform="translate(-164.776 -225.251)" fill="#ffb8b8"/>
    <path id="Path_27" data-name="Path 27" d="M425.374,435.46s7.724,29.607-3.862,27.032-9.011-28.32-9.011-28.32Z" transform="translate(-176.141 -225.251)" fill="#ffb8b8"/>
    <path id="Path_28" data-name="Path 28" d="M290.923,290.1l-3.553-2.766s-4.17.191-5.458,2.766-21.883,66.937-21.883,66.937-6.436,33.469-2.574,54.065l1.287,15.447h18.022l-1.287-24.458,12.872-48.916Z" transform="translate(-164.622 -214.412)" fill="#2f2e41"/>
    <path id="Path_29" data-name="Path 29" d="M393.758,290.1l3.553-2.766s4.17.191,5.458,2.766,21.883,66.937,21.883,66.937,6.436,33.469,2.575,54.065l-1.287,15.447H407.918l1.287-24.458-12.872-48.916Z" transform="translate(-174.775 -214.412)" fill="#2f2e41"/>
    <rect id="Rectangle_44" data-name="Rectangle 44" width="19.641" height="19.641" transform="translate(303.678 241.09)" fill="#fff"/>
    <rect id="Rectangle_45" data-name="Rectangle 45" width="158.108" height="1.964" transform="translate(357.69 249.928)" fill="#fff"/>
    <rect id="Rectangle_46" data-name="Rectangle 46" width="19.641" height="19.641" transform="translate(303.678 273.497)" fill="#fff"/>
    <rect id="Rectangle_47" data-name="Rectangle 47" width="158.108" height="1.964" transform="translate(357.69 282.335)" fill="#fff"/>
    <rect id="Rectangle_48" data-name="Rectangle 48" width="19.641" height="19.641" transform="translate(303.678 305.904)" fill="#fff"/>
    <rect id="Rectangle_49" data-name="Rectangle 49" width="158.108" height="1.964" transform="translate(357.69 314.742)" fill="#fff"/>
  </g>
</svg>
