<svg xmlns="http://www.w3.org/2000/svg" width="820" height="510.452" viewBox="0 0 820 510.452">
  <g id="undraw_online_articles_79ff" transform="translate(-0.006)">
    <rect id="Rectangle_53" data-name="Rectangle 53" width="169" height="306" transform="translate(568.006 99.671)" fill="#e6e6e6"/>
    <path id="Path_33" data-name="Path 33" d="M788,573.79H924.67V298.61H788Z" transform="translate(-204.393 -183.182)" fill="#fff"/>
    <rect id="Rectangle_54" data-name="Rectangle 54" width="39.913" height="3.707" transform="translate(636.123 174.448)" fill="#e6e6e6"/>
    <rect id="Rectangle_55" data-name="Rectangle 55" width="69.566" height="3.707" transform="translate(636.123 187.27)" fill="#e6e6e6"/>
    <rect id="Rectangle_56" data-name="Rectangle 56" width="69.498" height="3.707" transform="translate(636.123 200.092)" fill="#e6e6e6"/>
    <rect id="Rectangle_57" data-name="Rectangle 57" width="29.652" height="29.652" transform="translate(598.199 174.503)" fill="#e6e6e6"/>
    <rect id="Rectangle_58" data-name="Rectangle 58" width="39.913" height="3.707" transform="translate(636.123 238.165)" fill="#e6e6e6"/>
    <rect id="Rectangle_59" data-name="Rectangle 59" width="69.566" height="3.707" transform="translate(636.123 250.987)" fill="#e6e6e6"/>
    <rect id="Rectangle_60" data-name="Rectangle 60" width="69.498" height="3.707" transform="translate(636.123 263.809)" fill="#e6e6e6"/>
    <rect id="Rectangle_61" data-name="Rectangle 61" width="29.652" height="29.652" transform="translate(598.199 238.22)" fill="#e6e6e6"/>
    <rect id="Rectangle_62" data-name="Rectangle 62" width="39.913" height="3.707" transform="translate(636.123 301.881)" fill="#e6e6e6"/>
    <rect id="Rectangle_63" data-name="Rectangle 63" width="69.566" height="3.707" transform="translate(636.123 314.703)" fill="#e6e6e6"/>
    <rect id="Rectangle_64" data-name="Rectangle 64" width="69.498" height="3.707" transform="translate(636.123 327.525)" fill="#e6e6e6"/>
    <rect id="Rectangle_65" data-name="Rectangle 65" width="29.652" height="29.652" transform="translate(598.199 301.936)" fill="#e6e6e6"/>
    <rect id="Rectangle_66" data-name="Rectangle 66" width="169" height="306" transform="translate(98.006 99.671)" fill="#e6e6e6"/>
    <path id="Path_34" data-name="Path 34" d="M280,573.79H416.67V298.61H280Z" transform="translate(-165.493 -183.182)" fill="#fff"/>
    <rect id="Rectangle_67" data-name="Rectangle 67" width="39.913" height="3.707" transform="translate(167.023 174.448)" fill="#e6e6e6"/>
    <rect id="Rectangle_68" data-name="Rectangle 68" width="69.566" height="3.707" transform="translate(167.023 187.27)" fill="#e6e6e6"/>
    <rect id="Rectangle_69" data-name="Rectangle 69" width="69.498" height="3.707" transform="translate(167.023 200.092)" fill="#e6e6e6"/>
    <rect id="Rectangle_70" data-name="Rectangle 70" width="29.652" height="29.652" transform="translate(129.099 174.503)" fill="#e6e6e6"/>
    <rect id="Rectangle_71" data-name="Rectangle 71" width="39.913" height="3.707" transform="translate(167.023 238.165)" fill="#e6e6e6"/>
    <rect id="Rectangle_72" data-name="Rectangle 72" width="69.566" height="3.707" transform="translate(167.023 250.987)" fill="#e6e6e6"/>
    <rect id="Rectangle_73" data-name="Rectangle 73" width="69.498" height="3.707" transform="translate(167.023 263.809)" fill="#e6e6e6"/>
    <rect id="Rectangle_74" data-name="Rectangle 74" width="29.652" height="29.652" transform="translate(129.099 238.22)" fill="#e6e6e6"/>
    <rect id="Rectangle_75" data-name="Rectangle 75" width="39.913" height="3.707" transform="translate(167.023 301.881)" fill="#e6e6e6"/>
    <rect id="Rectangle_76" data-name="Rectangle 76" width="69.566" height="3.707" transform="translate(167.023 314.703)" fill="#e6e6e6"/>
    <rect id="Rectangle_77" data-name="Rectangle 77" width="69.498" height="3.707" transform="translate(167.023 327.525)" fill="#e6e6e6"/>
    <rect id="Rectangle_78" data-name="Rectangle 78" width="29.652" height="29.652" transform="translate(129.099 301.936)" fill="#e6e6e6"/>
    <ellipse id="Ellipse_7" data-name="Ellipse 7" cx="410" cy="16.5" rx="410" ry="16.5" transform="translate(0.006 398.671)" fill="#e6e6e6"/>
    <rect id="Rectangle_79" data-name="Rectangle 79" width="228.809" height="417.388" transform="translate(302.989)" fill="#3f3d56"/>
    <path id="Path_35" data-name="Path 35" d="M494.82,581.259H703.853V185.11H494.82Z" transform="translate(-181.943 -174.49)" fill="#fff"/>
    <rect id="Rectangle_80" data-name="Rectangle 80" width="54.34" height="5.046" transform="translate(395.854 101.725)" fill="#6c63ff"/>
    <rect id="Rectangle_81" data-name="Rectangle 81" width="94.71" height="5.046" transform="translate(395.854 119.182)" fill="#e6e6e6"/>
    <rect id="Rectangle_82" data-name="Rectangle 82" width="94.617" height="5.046" transform="translate(395.854 136.638)" fill="#e6e6e6"/>
    <rect id="Rectangle_83" data-name="Rectangle 83" width="40.37" height="40.37" transform="translate(344.223 101.8)" fill="#6c63ff"/>
    <rect id="Rectangle_84" data-name="Rectangle 84" width="54.34" height="5.046" transform="translate(395.854 188.471)" fill="#6c63ff"/>
    <rect id="Rectangle_85" data-name="Rectangle 85" width="94.71" height="5.046" transform="translate(395.854 205.928)" fill="#e6e6e6"/>
    <rect id="Rectangle_86" data-name="Rectangle 86" width="94.617" height="5.046" transform="translate(395.854 223.385)" fill="#e6e6e6"/>
    <rect id="Rectangle_87" data-name="Rectangle 87" width="40.37" height="40.37" transform="translate(344.223 188.546)" fill="#6c63ff"/>
    <rect id="Rectangle_88" data-name="Rectangle 88" width="54.34" height="5.046" transform="translate(395.854 275.218)" fill="#6c63ff"/>
    <rect id="Rectangle_89" data-name="Rectangle 89" width="94.71" height="5.046" transform="translate(395.854 292.674)" fill="#e6e6e6"/>
    <rect id="Rectangle_90" data-name="Rectangle 90" width="94.617" height="5.046" transform="translate(395.854 310.131)" fill="#e6e6e6"/>
    <rect id="Rectangle_91" data-name="Rectangle 91" width="40.37" height="40.37" transform="translate(344.223 275.293)" fill="#6c63ff"/>
    <path id="Path_36" data-name="Path 36" d="M516.261,493.956l-2.77,12s.923,27.7-6.464,24.932-5.541-26.779-5.541-26.779l6.464-12Z" transform="translate(-182.438 -197.999)" fill="#ffb8b8"/>
    <ellipse id="Ellipse_8" data-name="Ellipse 8" cx="19" cy="18" rx="19" ry="18" transform="translate(274.006 127.671)" fill="#ffb8b8"/>
    <path id="Path_37" data-name="Path 37" d="M457.351,337.11,455.5,363.889l23.086,2.77s0-22.162,1.847-24.932S457.351,337.11,457.351,337.11Z" transform="translate(-178.932 -186.13)" fill="#ffb8b8"/>
    <path id="Path_38" data-name="Path 38" d="M505.576,373.072l-29.9-12.663s-14.284-11.022-22.664-2.873l-3.762,5.379S416,375.842,416,386l12.928,50.788s-7.387,28.626,3.694,30.473l60.023,5.541a20.773,20.773,0,0,0,.923-23.086l2.77-30.473Z" transform="translate(-175.907 -187.464)" fill="#575a89"/>
    <path id="Path_39" data-name="Path 39" d="M491,375.533l20.315-.923S517.783,376.456,522.4,394s5.541,46.171,5.541,46.171l-11.081,51.712-13.851-1.847,5.541-49.865-9.234-33.243Z" transform="translate(-181.651 -189.001)" fill="#575a89"/>
    <path id="Path_40" data-name="Path 40" d="M426.166,381.61l-10.016,3.119s-8.453,12.579-8.453,19.043S404,459.177,404,459.177l24.009,39.707,7.387-19.392L420.625,454.56l12-30.473Z" transform="translate(-174.988 -189.537)" fill="#575a89"/>
    <path id="Path_41" data-name="Path 41" d="M495.571,480.125l-66.391-5.841s-6.559,41.855-5.636,58.477,1.847,42.478,1.847,42.478L418,687.9,446.63,684.2l3.694-93.266,12-50.788,13.851,64.64,9.234,83.108,24.932-2.77-8.311-100.653S509.423,493.977,495.571,480.125Z" transform="translate(-176.061 -196.634)" fill="#2f2e41"/>
    <path id="Path_42" data-name="Path 42" d="M510.472,697.609l8.311,2.77s17.545-4.617,12.928,7.387-17.545,10.158-17.545,10.158-15.7,12-22.162,2.77L495.7,701.3Z" transform="translate(-181.727 -213.735)" fill="#2f2e41"/>
    <path id="Path_43" data-name="Path 43" d="M437.472,697.609l8.311,2.77s17.545-4.617,12.928,7.387-17.545,10.158-17.545,10.158-15.7,12-22.162,2.77L422.7,701.3Z" transform="translate(-176.137 -213.735)" fill="#2f2e41"/>
    <path id="Path_44" data-name="Path 44" d="M456.494,345.758s-19.392-13.851-9.234-30.473c7.047-11.531,21.649-10.618,29.932-8.978a13.993,13.993,0,0,1,10.237,8.054c1.385,3.232,1.385,6.464-4.155,6.464-11.081,0-5.541,8.311-5.541,8.311s-7.387,1.847-5.541,8.311S456.494,345.758,456.494,345.758Z" transform="translate(-178.076 -183.697)" fill="#2f2e41"/>
  </g>
</svg>
